<svg width="720" height="720" xmlns="http://www.w3.org/2000/svg" xmlns:xlink="http://www.w3.org/1999/xlink" xml:space="preserve" overflow="hidden"><g transform="translate(-280 0)"><path d="M138.855 43.4637C193.323-34.1523 302.257-34.1523 356.725 4.65574 411.193 43.4637 411.193 121.08 356.725 198.696 318.597 256.907 220.557 315.12 138.855 353.928 57.1541 315.12-40.887 256.907-79.0142 198.696-133.482 121.08-133.482 43.4637-79.0142 4.65574-24.5466-34.1523 84.3881-34.1523 138.855 43.4637Z" fill="#FF9999" fill-rule="evenodd" transform="matrix(1 0 0 1.17532 501.144 164.254)"/><path d="M138.855 43.4637C193.323-34.1523 302.257-34.1523 356.725 4.65574 411.193 43.4637 411.193 121.08 356.725 198.696 318.597 256.907 220.557 315.12 138.855 353.928 57.1541 315.12-40.887 256.907-79.0142 198.696-133.482 121.08-133.482 43.4637-79.0142 4.65574-24.5466-34.1523 84.3881-34.1523 138.855 43.4637Z" fill="#FF9999" fill-rule="evenodd" transform="matrix(1 0 0 1.17532 501.144 164.254)"/></g></svg>